<svg version="1" xmlns="http://www.w3.org/2000/svg" width="682.667" height="682.667" viewBox="0 0 512.000000 512.000000"><path d="M222.5 55.7c-37.9 4.4-77.8 22.7-152.3 69.7L66 128l1.9 2.8c1.1 1.5 6.8 10.1 12.6 19.2 5.9 9.1 11.1 16.4 11.5 16.3.5-.1 5.8-3.4 11.8-7.2 51.6-32.6 89.7-51.9 107.7-54.6 2.2-.4 5.6-1 7.6-1.4 7-1.6 23-.6 28.7 1.8 6.3 2.5 6.8 2.9 14.3 10.2 10.4 10.2 17.1 27.6 19.4 50.4.6 6.2.7 29.4.1 35.5-.2 1.9-.7 6.9-1.1 11-.4 4.1-.9 7.7-1 8-.2.3-.7 3.3-1 6.5-.4 3.3-.9 6.2-1.2 6.5-.3.3-47.1.6-104.1.7-57 0-104.2.2-104.9.2-1 .1-2.7 6.1-4.7 16.6-.3 1.1-1.4 6.3-2.6 11.5-1.2 5.2-2.4 10.6-2.6 12-.3 1.4-.7 3.3-1 4.2-.4 1.5.1 1.8 3.3 1.8 2.1.1 49.1.1 104.5.1l100.7.1-3.5 9.8c-4.5 13.2-11.7 29.8-16.7 39-4.2 7.8-13.6 23.1-14.8 24-.3.3-1.9 2.3-3.5 4.5-9.1 12.6-27.2 28.9-39.4 35.6-1.4.8-3.2 1.9-4 2.5-4.8 3.6-29.1 11.5-40.5 13.2-10.3 1.5-48 .6-57.5-1.3-1.4-.3-3.9-.7-5.5-.9-10.6-1.5-27-6.4-43.9-13.3-6-2.4-11-4.2-11.1-4.1-.7 1-7.2 13.1-12.5 23.3-3.4 6.6-7.6 14.3-9.2 17.2l-2.9 5.2 4.8 2.1c10.8 4.8 33.7 11.9 43.3 13.5 1.9.3 5.1 1 7 1.5 1.9.4 6 1.2 9 1.5 3 .4 6.2.9 7 1 14.6 2.6 71.6 2.6 76 0 .3-.2 2.6-.6 5-1 21.6-3.1 55.4-17.7 75.5-32.7 18.7-13.9 36.8-32.8 50.6-52.8 9.2-13.2 21.4-35.4 27.4-50 1.5-3.6 3.2-7.6 3.8-9 .6-1.4 1.1-2.7 1.2-3 0-.3 1.1-3.2 2.4-6.5 2.2-5.9 9.8-30.5 10.5-34.2.2-1 .9-3.6 1.5-5.9 1.9-7.2 5.9-27.6 7.1-36.4.6-4.7 1.3-9.6 1.5-11 .7-4 1.8-24 1.8-31.5-.3-49.5-15.5-87.4-43.8-108.3-10.6-7.8-22.7-12.9-36.6-15.6-6.4-1.2-26.3-1.7-33.4-.9zM407.8 327.8c-4 5.5-10.4 14.2-14.1 19.4-3.7 5.1-11.1 15.1-16.3 22.3-5.2 7.1-13.1 18.2-17.6 24.5-4.5 6.3-8.5 11.7-8.8 12-.3.3-2.2 2.7-4.1 5.5-1.8 2.7-3.6 5.2-3.9 5.5-.6.5-16.5 22.4-21.3 29.2-1.5 2.2-2.6 4.3-2.3 4.5.7.8 190.5.7 191.2 0 .5-.4-70.1-98.5-84.7-117.8-1-1.4-3.9-5.3-6.3-8.8l-4.5-6.3-7.3 10z"/></svg>