<svg xmlns="http://www.w3.org/2000/svg" xmlns:xlink="http://www.w3.org/1999/xlink">
  <g viewBox="0 0 33 32" id="icon-facebook">
    <path d="M32.195 16.087C32.195 7.201 24.989 0 16.097 0 7.207 0 0 7.201 0 16.087c0 8.03 5.886 14.686 13.582 15.892V20.737H9.495v-4.65h4.087v-3.544c0-4.031 2.402-6.259 6.08-6.259 1.762 0 3.604.314 3.604.314v3.96h-2.031c-2 0-2.622 1.24-2.622 2.513v3.016h4.464l-.714 4.65h-3.75V31.98c7.696-1.206 13.582-7.861 13.582-15.892z"></path>
  </g>
  <g viewBox="0 0 43 32" id="icon-search">
    <path fill-rule="evenodd" clip-rule="evenodd" d="M13.844 23.8c2.75 4.328 7.586 7.2 13.093 7.2 8.56 0 15.5-6.94 15.5-15.5 0-8.56-6.94-15.5-15.5-15.5-8.56 0-15.5 6.94-15.5 15.5 0 2.34.519 4.557 1.446 6.546L0 28.998l1.147 2.067L13.844 23.8zm-.407-8.3c0 7.456 6.045 13.5 13.5 13.5 7.456 0 13.5-6.044 13.5-13.5S34.393 2 26.937 2s-13.5 6.044-13.5 13.5z"></path>
  </g>
  <g viewBox="0 0 27 28" id="icon-send">
    <path fill-rule="evenodd" clip-rule="evenodd" d="M2 2.346L3.645 13.25h19.29L2 2.346zM22.931 14.75L1.966 25.652 3.643 14.75H22.93zm-20.69-.751L.297 1.112 1.385.335l24.96 13v1.33l-25 13-1.087-.779L2.241 14z"></path>
  </g>
  <g viewBox="0 0 32 27" id="icon-telegram">
    <path fill-rule="evenodd" clip-rule="evenodd" d="M7.632 15.47l-6.49-2.026c-1.571-.48-1.583-1.56.352-2.337L29.839.177c1.295-.587 2.545.312 2.05 2.293l-4.827 22.748c-.337 1.616-1.313 2.003-2.667 1.256l-7.353-5.433-3.568 3.47c-.319.31-.592.576-1.06.669a1.74 1.74 0 0 1-1.139-.061 1.96 1.96 0 0 1-1.13-1.258L7.632 15.47zm18.55-10.071L12.536 17.713l-.399 5.987a.387.387 0 0 1-.164.073.273.273 0 0 1-.147-.019.49.49 0 0 1-.27-.308v-.002L9.11 15.276 25.256 5.09c.795-.482 1.525-.223.926.309z"></path>
  </g>
  <g viewBox="0 0 28 23" id="icon-twitter">
    <path fill-rule="evenodd" clip-rule="evenodd" d="M28 2.673a11.596 11.596 0 0 1-3.3.895A5.707 5.707 0 0 0 27.223.414 11.565 11.565 0 0 1 23.576 1.8 5.761 5.761 0 0 0 19.382 0c-3.17 0-5.743 2.553-5.743 5.698 0 .448.05.883.15 1.298A16.34 16.34 0 0 1 1.951 1.04a5.647 5.647 0 0 0-.777 2.864A5.678 5.678 0 0 0 3.73 8.645a5.766 5.766 0 0 1-2.602-.713v.07c0 2.76 1.98 5.065 4.607 5.587a5.804 5.804 0 0 1-2.594.095 5.746 5.746 0 0 0 5.364 3.958 11.579 11.579 0 0 1-7.135 2.442c-.464 0-.919-.03-1.37-.08a16.35 16.35 0 0 0 8.806 2.562c10.564 0 16.34-8.682 16.34-16.213 0-.248-.003-.493-.016-.737a11.566 11.566 0 0 0 2.866-2.951l.004.008z"></path>
  </g>
  <g viewBox="0 0 32 20" id="icon-vk">
    <path fill-rule="evenodd" clip-rule="evenodd" d="M30.741 19.057h-3.494c-1.324 0-1.731-1.051-4.106-3.459-2.07-2-2.986-2.272-3.495-2.272-.713 0-.916.204-.916 1.187v3.153c0 .848-.272 1.357-2.511 1.357-3.699 0-7.804-2.238-10.688-6.409C1.188 6.51 0 1.933 0 .984 0 .473.204 0 1.188 0h3.494c.883 0 1.222.407 1.561 1.356 1.73 4.985 4.615 9.36 5.803 9.36.44 0 .644-.204.644-1.323V4.239C12.554 1.865 11.3 1.662 11.3.814c0-.407.34-.814.882-.814h5.497c.746 0 1.018.407 1.018 1.289v6.95c0 .747.34 1.018.543 1.018.44 0 .814-.271 1.628-1.085 2.511-2.814 4.31-7.155 4.31-7.155.237-.508.644-.983 1.527-.983h3.494c1.052 0 1.29.542 1.052 1.288-.44 2.035-4.716 8.07-4.716 8.07-.373.611-.509.882 0 1.56.373.51 1.595 1.56 2.409 2.51 1.493 1.695 2.647 3.12 2.952 4.103.34.983-.17 1.492-1.154 1.492z"></path>
  </g>
  <g viewBox="0 0 19 13" id="elbrus-triangle">
    <path d="M9.5 0L19 13H0L9.5 0z"></path>
  </g>
  <g viewBox="0 0 32 32" id="icon-close">
    <path d="M15.5564 14.1421L29.6985 0L31.1127 1.41422L16.9706 15.5563L31.1128 29.6985L29.6986 31.1127L15.5564 16.9705L1.41418 31.1127L0 29.6985L14.1422 15.5563L0.00012207 1.41422L1.41431 0L15.5564 14.1421Z"/>
  </g>
</svg>