<svg xmlns="http://www.w3.org/2000/svg" xmlns:xlink="http://www.w3.org/1999/xlink">
  <g viewBox="0 0 33 32" id="icon-facebook">
    <path d="M32.195 16.087C32.195 7.201 24.989 0 16.097 0 7.207 0 0 7.201 0 16.087c0 8.03 5.886 14.686 13.582 15.892V20.737H9.495v-4.65h4.087v-3.544c0-4.031 2.402-6.259 6.08-6.259 1.762 0 3.604.314 3.604.314v3.96h-2.031c-2 0-2.622 1.24-2.622 2.513v3.016h4.464l-.714 4.65h-3.75V31.98c7.696-1.206 13.582-7.861 13.582-15.892z"></path>
  </g>
  <g viewBox="0 0 43 32" id="icon-search">
    <path fill-rule="evenodd" clip-rule="evenodd" d="M13.844 23.8c2.75 4.328 7.586 7.2 13.093 7.2 8.56 0 15.5-6.94 15.5-15.5 0-8.56-6.94-15.5-15.5-15.5-8.56 0-15.5 6.94-15.5 15.5 0 2.34.519 4.557 1.446 6.546L0 28.998l1.147 2.067L13.844 23.8zm-.407-8.3c0 7.456 6.045 13.5 13.5 13.5 7.456 0 13.5-6.044 13.5-13.5S34.393 2 26.937 2s-13.5 6.044-13.5 13.5z"></path>
  </g>
  <g viewBox="0 0 27 28" id="icon-send">
    <path fill-rule="evenodd" clip-rule="evenodd" d="M2 2.346L3.645 13.25h19.29L2 2.346zM22.931 14.75L1.966 25.652 3.643 14.75H22.93zm-20.69-.751L.297 1.112 1.385.335l24.96 13v1.33l-25 13-1.087-.779L2.241 14z"></path>
  </g>
  <g viewBox="0 0 32 27" id="icon-telegram">
    <path fill-rule="evenodd" clip-rule="evenodd" d="M7.632 15.47l-6.49-2.026c-1.571-.48-1.583-1.56.352-2.337L29.839.177c1.295-.587 2.545.312 2.05 2.293l-4.827 22.748c-.337 1.616-1.313 2.003-2.667 1.256l-7.353-5.433-3.568 3.47c-.319.31-.592.576-1.06.669a1.74 1.74 0 0 1-1.139-.061 1.96 1.96 0 0 1-1.13-1.258L7.632 15.47zm18.55-10.071L12.536 17.713l-.399 5.987a.387.387 0 0 1-.164.073.273.273 0 0 1-.147-.019.49.49 0 0 1-.27-.308v-.002L9.11 15.276 25.256 5.09c.795-.482 1.525-.223.926.309z"></path>
  </g>
  <g viewBox="0 0 28 23" id="icon-twitter">
    <path fill-rule="evenodd" clip-rule="evenodd" d="M28 2.673a11.596 11.596 0 0 1-3.3.895A5.707 5.707 0 0 0 27.223.414 11.565 11.565 0 0 1 23.576 1.8 5.761 5.761 0 0 0 19.382 0c-3.17 0-5.743 2.553-5.743 5.698 0 .448.05.883.15 1.298A16.34 16.34 0 0 1 1.951 1.04a5.647 5.647 0 0 0-.777 2.864A5.678 5.678 0 0 0 3.73 8.645a5.766 5.766 0 0 1-2.602-.713v.07c0 2.76 1.98 5.065 4.607 5.587a5.804 5.804 0 0 1-2.594.095 5.746 5.746 0 0 0 5.364 3.958 11.579 11.579 0 0 1-7.135 2.442c-.464 0-.919-.03-1.37-.08a16.35 16.35 0 0 0 8.806 2.562c10.564 0 16.34-8.682 16.34-16.213 0-.248-.003-.493-.016-.737a11.566 11.566 0 0 0 2.866-2.951l.004.008z"></path>
  </g>
  <g viewBox="0 0 32 20" id="icon-vk">
    <path fill-rule="evenodd" clip-rule="evenodd" d="M30.741 19.057h-3.494c-1.324 0-1.731-1.051-4.106-3.459-2.07-2-2.986-2.272-3.495-2.272-.713 0-.916.204-.916 1.187v3.153c0 .848-.272 1.357-2.511 1.357-3.699 0-7.804-2.238-10.688-6.409C1.188 6.51 0 1.933 0 .984 0 .473.204 0 1.188 0h3.494c.883 0 1.222.407 1.561 1.356 1.73 4.985 4.615 9.36 5.803 9.36.44 0 .644-.204.644-1.323V4.239C12.554 1.865 11.3 1.662 11.3.814c0-.407.34-.814.882-.814h5.497c.746 0 1.018.407 1.018 1.289v6.95c0 .747.34 1.018.543 1.018.44 0 .814-.271 1.628-1.085 2.511-2.814 4.31-7.155 4.31-7.155.237-.508.644-.983 1.527-.983h3.494c1.052 0 1.29.542 1.052 1.288-.44 2.035-4.716 8.07-4.716 8.07-.373.611-.509.882 0 1.56.373.51 1.595 1.56 2.409 2.51 1.493 1.695 2.647 3.12 2.952 4.103.34.983-.17 1.492-1.154 1.492z"></path>
  </g>
  <g viewBox="0 0 32 32" id="icon-close">
    <path d="M15.5564 14.1421L29.6985 0L31.1127 1.41422L16.9706 15.5563L31.1128 29.6985L29.6986 31.1127L15.5564 16.9705L1.41418 31.1127L0 29.6985L14.1422 15.5563L0.00012207 1.41422L1.41431 0L15.5564 14.1421Z"/>
  </g>
  <g viewBox="0 0 19 13" id="elbrus-triangle-0">
    <path d="M9.5 0L19 13H0L9.5 0z"></path>
  </g>
  <g viewBox="0 0 13 19" id="elbrus-triangle-90">
    <path d="M13 9.5L-1.78419e-06 19L-9.53674e-07 -5.68248e-07L13 9.5Z"/>
  </g>
  <g viewBox="0 0 19 13" id="elbrus-triangle-180">
    <path d="M9.5 13L1.1365e-06 -2.61471e-06L19 -9.53674e-07L9.5 13Z"/>
  </g>
  <g viewBox="0 0 13 19" id="elbrus-triangle-270">
    <path d="M4.78397e-07 9.5L13 19L13 -5.68248e-07L4.78397e-07 9.5Z"/>
  </g>
  <g viewBox="0 0 49 33" id="elbrus-triangle-last-news">
    <path d="M24.5 33L-1.16816e-06 -7.07438e-07L49 3.57628e-06L24.5 33Z"/>
  </g>
  <g viewBox="0 0 188 24" id="logo-footer">
    <path d="M9.58323 3.375C7.89343 3.375 6.24993 4.03125 2.63886 6.35156L3.65737 7.94531C6.94437 5.83594 8.14806 5.29687 9.3749 5.29687C10.949 5.29687 11.8054 7.24219 11.1804 10.6641H2.68516L2.26849 12.5625H10.7175C9.60638 16.1484 7.56936 17.8594 5.02309 17.8594C3.37959 17.8594 2.36109 17.625 0.99536 16.9922L0 18.8906C1.45832 19.5234 2.87034 19.7813 4.67588 19.7813C8.63417 19.7813 12.0601 16.8984 13.2637 11.2266C14.3517 6.09375 12.4304 3.375 9.58323 3.375Z"/>
    <path d="M24.893 6.65625H21.8838L14.708 19.5469H16.9302L21.1662 11.8359L22.8097 8.53125H23.319L23.5968 11.8359L24.4995 19.5469H26.6523L24.893 6.65625Z"/>
    <path d="M40.851 11.0625C39.7167 11.0625 37.4019 11.8125 33.8372 13.2656H33.6288L34.5085 10.3594L35.2955 6.65625H33.2122L30.7585 18.3281C33.0501 19.2422 35.1334 19.8047 36.4529 19.8047C38.3973 19.8047 41.7769 18.2109 42.4713 14.8828C42.9343 12.6328 42.3324 11.0625 40.851 11.0625ZM40.3649 14.5547C39.8325 17.0391 37.6566 18.0234 36.2445 18.0234C35.4344 18.0234 34.1612 17.625 33.0733 17.2266L33.5825 14.8828C37.888 13.3828 39.5778 12.9609 40.1565 12.9609C40.4806 12.9609 40.5964 13.5234 40.3649 14.5547Z"/>
    <path d="M54.2858 6.67969C53.221 6.67969 52.596 6.89063 47.3414 10.6172L47.1794 10.5938C48.0822 6.98438 49.1701 5.17969 50.4201 4.33594C51.2766 3.75 52.9895 3.16406 58.2209 1.85156L57.9432 0C52.9201 1.24219 50.5821 2.01563 49.4479 2.78906C47.4109 4.19531 45.9757 6.89063 45.2581 10.2656C43.9387 16.5938 45.3044 19.8047 49.1701 19.8047C52.5034 19.8047 55.4895 17.0156 56.3923 12.75C57.1561 9.1875 55.8599 6.67969 54.2858 6.67969ZM54.3089 12.6797C53.6608 15.7969 51.6006 17.9063 49.3553 17.9063C47.3646 17.9063 46.5776 16.1953 47.0174 12.7734C52.8506 8.78906 53.3136 8.57813 53.7997 8.57813C54.4247 8.57813 54.7951 10.4063 54.3089 12.6797Z"/>
    <path d="M70.0586 6.39844C69.0632 6.39844 68.3919 6.63281 62.8596 11.2969H62.7207L64.1096 5.95313L64.5957 3.60938H62.5123L58.2763 23.7656H60.3596L61.3781 19.0313C62.8827 19.5234 64.2021 19.8047 65.1281 19.8047C67.0725 19.8047 70.4289 16.6641 71.5632 11.2266C72.2345 7.96875 71.6326 6.39844 70.0586 6.39844ZM69.4336 11.25C68.6697 14.8828 66.3318 18.0234 64.9197 18.0234C64.1096 18.0234 62.8364 17.625 61.7485 17.2266L62.5355 13.5469C68.6465 8.50781 69.1095 8.29688 69.4567 8.29688C69.7808 8.29688 69.8502 9.25781 69.4336 11.25Z"/>
    <path d="M86.2017 10.3594C86.2017 9.07031 85.9934 7.54688 85.785 6.65625H83.5165C83.7249 7.61719 84.0721 9.49219 84.0721 10.4297C84.0721 11.1563 83.3776 12.4922 81.8962 14.3672L79.6277 17.6719H79.3268L79.0027 14.3672L77.9147 6.65625H75.762L77.799 19.6875L77.4055 21.2578C77.2203 22.0313 77.1046 22.1016 76.8499 22.1016C76.5953 22.1016 76.3638 21.9844 75.299 20.6484L73.5398 18.4688L71.8963 19.8047L73.4935 21.6797C75.0444 23.5078 75.7157 24 76.8962 24C78.2157 24 79.0721 23.2969 79.6045 21.1172L79.9749 19.6641C83.8869 14.8594 86.2017 11.9063 86.2017 10.3594Z"/>
    <path d="M93.0394 19.8047C94.7755 19.8047 96.6504 19.3359 100.331 16.5469L99.3356 15C95.8403 17.5781 94.3588 17.9063 93.2708 17.9063C91.419 17.9063 90.9329 16.0781 91.5116 13.4766C92.2523 10.0313 94.4051 8.32031 96.7199 8.32031C98.2013 8.32031 99.2893 8.95313 100.4 9.60938L101.396 7.71094C100.215 7.00781 98.7569 6.42188 96.9977 6.42188C93.2245 6.42188 90.2616 9.1875 89.382 13.3359C88.5487 17.2969 90.1227 19.8047 93.0394 19.8047Z"/>
    <path d="M131.182 6.65625H120.858V19.5469H122.941V8.53125H129.099V19.5469H131.182V6.65625Z"/>
    <path d="M141.098 6.39844C139.64 6.375 138.251 6.84375 136.816 8.08594V6.65625H135.057V23.7656H137.14V19.5937C137.858 19.7109 138.668 19.7813 139.617 19.7813C143.413 19.7813 145.936 17.7656 145.936 12.6094C145.936 8.64844 144.246 6.42188 141.098 6.39844ZM139.779 17.8828C138.853 17.8828 137.95 17.7891 137.14 17.5547V9.51563C138.506 8.625 139.571 8.27344 140.844 8.29688C142.811 8.32031 143.83 9.91406 143.83 12.8438C143.83 16.1953 142.58 17.8828 139.779 17.8828Z"/>
    <path d="M150.876 12.9844H159.741C160.251 8.8125 158.561 6.42188 154.765 6.42188C151.431 6.42188 148.769 8.85938 148.769 13.2422C148.769 17.625 151.107 19.7813 154.88 19.7813C156.871 19.7813 158.376 19.2891 159.695 18.5391L159.14 16.7812C157.89 17.4375 156.732 17.8828 154.927 17.8828C152.242 17.8828 150.876 16.4063 150.876 13.125V12.9844ZM154.626 8.25C156.709 8.25 157.704 9.14062 157.751 11.2969H151.038C151.455 9.35156 152.612 8.25 154.626 8.25Z"/>
    <path d="M169.01 19.7813C171 19.7813 172.505 19.2891 173.824 18.5391L173.269 16.6875C172.019 17.3906 170.862 17.8828 169.056 17.8828C166.278 17.8828 165.028 16.4063 165.028 13.125C165.028 9.79688 166.602 8.32031 169.056 8.32031C170.862 8.32031 172.019 8.71875 173.269 9.375L173.871 7.47656C172.551 6.77344 171 6.42188 169.241 6.42188C165.7 6.42188 162.899 8.57813 162.899 13.2422C162.899 17.625 165.121 19.7813 169.01 19.7813Z"/>
    <path d="M183.139 19.7813C185.13 19.7813 186.634 19.2891 187.954 18.5391L187.398 16.6875C186.148 17.3906 184.991 17.8828 183.185 17.8828C180.407 17.8828 179.157 16.4063 179.157 13.125C179.157 9.79688 180.732 8.32031 183.185 8.32031C184.991 8.32031 186.148 8.71875 187.398 9.375L188 7.47656C186.681 6.77344 185.13 6.42188 183.37 6.42188C179.829 6.42188 177.028 8.57813 177.028 13.2422C177.028 17.625 179.25 19.7813 183.139 19.7813Z"/>
    <path d="M110.067 14.106L113.993 19.5469H106.14L110.067 14.106Z"/>
  </g>
  <g viewBox="0 0 55 40" id="logo-short">
    <path id="logo-short-letter-e" d="M23.184 0C19.096 0 15.12 1.568 6.384 7.112L8.848 10.92C16.8 5.88 19.712 4.592 22.68 4.592C26.488 4.592 28.56 9.24 27.048 17.416L6.496 17.416L5.488 21.952L25.928 21.952C23.24 30.52 18.312 34.608 12.152 34.608C8.176 34.608 5.712 34.048 2.408 32.536L0 37.072C3.528 38.584 6.944 39.2 11.312 39.2C20.888 39.2 29.176 32.312 32.088 18.76C34.72 6.496 30.072 0 23.184 0Z"/>
    <path id="logo-short-elbrus-triangle" d="M44.776 25.6399L54.276 38.6399L35.276 38.6399L44.776 25.6399Z" fill="#83CBFE"/>
  </g>
</svg>